<svg width="512" height="512" viewBox="0 0 512 512" fill="none" xmlns="http://www.w3.org/2000/svg">
<path fill-rule="evenodd" clip-rule="evenodd" d="M81.3458 393.847C145.767 393.847 157.907 337.638 157.907 292.634C165.558 292.634 226.026 292.634 253.607 292.634C403.633 292.634 403.671 82 258.393 82C218.878 82 193.426 105.772 186.612 114.053C105.553 114.053 95.7009 156.082 95.7009 237.691C95.7009 253.435 95.7009 304.613 95.7009 312.496C95.7009 331.685 87.93 344.133 66.9859 344.133C49.1042 344.133 40.6346 328.421 33.4906 306.371C29.7678 308.356 3.62704 322.387 0 324.687C7.90967 346.715 16.3792 393.847 81.3458 393.847ZM172.424 205.633C196.967 205.633 199.053 242.265 170.687 242.265C146.777 242.265 147.399 205.633 172.424 205.633ZM258.397 315.407C237.654 315.407 177.047 310.95 177.047 310.95V423.884L234.467 424.698L248.822 343.003L430.654 339.613L435.444 429.182L502.435 430C502.435 430 512 254.565 512 219.37C512 154.089 482.567 117.14 416.299 114.053C399.695 113.28 377.971 110.206 363.664 109.474C426.027 184.777 376.406 315.407 258.397 315.407ZM373.238 361.197L378.019 427.555L416.299 428.373L411.514 361.197H373.238ZM253.607 425.52L291.888 426.334L301.453 361.197H267.958L253.607 425.52Z" fill="#FF862F"/>
</svg>
